HIERARCHY
ROOT Hips
{
	OFFSET -0.001795 -0.223333 0.028219
	CHANNELS 6 Xposition Yposition Zposition Zrotation Yrotation Xrotation 
	JOINT LeftUpLeg
	{
		OFFSET 0.069520 -0.091406 -0.006815
		CHANNELS 3 Zrotation Yrotation Xrotation
		JOINT LeftLeg
		{
			OFFSET 0.034277 -0.375199 -0.004496
			CHANNELS 3 Zrotation Yrotation Xrotation
			JOINT LeftFoot
			{
				OFFSET -0.013596 -0.397961 -0.043693
				CHANNELS 3 Zrotation Yrotation Xrotation
				JOINT LeftToe
				{
					OFFSET 0.026358 -0.055791 0.119288
					CHANNELS 3 Zrotation Yrotation Xrotation
					End Site
					{
						OFFSET 0.000000 0.000000 0.000000
					}
				}
			}
		}
	}
	JOINT RightUpLeg
	{
		OFFSET -0.067670 -0.090522 -0.004320
		CHANNELS 3 Zrotation Yrotation Xrotation
		JOINT RightLeg
		{
			OFFSET -0.038290 -0.382569 -0.008850
			CHANNELS 3 Zrotation Yrotation Xrotation
			JOINT RightFoot
			{
				OFFSET 0.015774 -0.398415 -0.042312
				CHANNELS 3 Zrotation Yrotation Xrotation
				JOINT RightToe
				{
					OFFSET -0.025372 -0.048144 0.123348
					CHANNELS 3 Zrotation Yrotation Xrotation
					End Site
					{
						OFFSET 0.000000 0.000000 0.000000
					}
				}
			}
		}
	}
	JOINT Spine
	{
		OFFSET -0.002533 0.108963 -0.026696
		CHANNELS 3 Zrotation Yrotation Xrotation
		JOINT Spine1
		{
			OFFSET 0.005487 0.135180 0.001092
			CHANNELS 3 Zrotation Yrotation Xrotation
			JOINT Spine2
			{
				OFFSET 0.001457 0.052922 0.025425
				CHANNELS 3 Zrotation Yrotation Xrotation
				JOINT Neck
				{
					OFFSET -0.002778 0.213870 -0.042857
					CHANNELS 3 Zrotation Yrotation Xrotation
					JOINT Head
					{
						OFFSET 0.005152 0.064970 0.051349
						CHANNELS 3 Zrotation Yrotation Xrotation
						End Site
						{
							OFFSET 0.000000 0.000000 0.000000
						}
					}
				}
				JOINT LeftShoulder
				{
					OFFSET 0.078845 0.121749 -0.034090
					CHANNELS 3 Zrotation Yrotation Xrotation
					JOINT LeftArm
					{
						OFFSET 0.090977 0.030469 -0.008868
						CHANNELS 3 Zrotation Yrotation Xrotation
						JOINT LeftForeArm
						{
							OFFSET 0.259612 -0.012772 -0.027456
							CHANNELS 3 Zrotation Yrotation Xrotation
							JOINT LeftHand
							{
								OFFSET 0.249234 0.008986 -0.001171
								CHANNELS 3 Zrotation Yrotation Xrotation
								End Site
								{
									OFFSET 0.000000 0.000000 0.000000
								}
							}
						}
					}
				}
				JOINT RightShoulder
				{
					OFFSET -0.081759 0.118833 -0.038615
					CHANNELS 3 Zrotation Yrotation Xrotation
					JOINT RightArm
					{
						OFFSET -0.096012 0.032551 -0.009143
						CHANNELS 3 Zrotation Yrotation Xrotation
						JOINT RightForeArm
						{
							OFFSET -0.253742 -0.013329 -0.021401
							CHANNELS 3 Zrotation Yrotation Xrotation
							JOINT RightHand
							{
								OFFSET -0.255298 0.007772 -0.005559
								CHANNELS 3 Zrotation Yrotation Xrotation
								End Site
								{
									OFFSET 0.000000 0.000000 0.000000
								}
							}
						}
					}
				}
			}
		}
	}
}
MOTION
Frames: 7
Frame Time: 0.050000
0.000000 0.907908 0.000000 0.376956 -4.619677 2.992857 -5.300877 -0.766014 -6.044812 -2.755846 0.359455 17.430346 8.160199 17.133801 3.145080 0.000000 0.000000 0.000000 2.663066 0.449798 -4.484645 4.016576 -0.157400 15.634031 -14.557037 -31.834729 6.474405 0.000000 0.000000 0.000000 -2.981044 0.277099 -9.280382 14.222608 -9.226002 16.364062 -11.370443 6.080954 -16.539167 1.917761 3.439881 -47.718012 0.000000 0.000000 0.000000 12.222696 17.969394 0.124799 -10.561428 -36.007792 1.276584 52.164433 -4.781888 -5.172428 0.000000 0.000000 0.000000 -15.855035 -10.123712 -1.552947 -42.108479 78.438327 -32.556982 -100.008052 12.903842 -9.863864 0.000000 0.000000 0.000000 
0.001092 0.907185 -0.004625 -0.002632 -8.476613 3.382138 -3.770152 -1.244944 -10.700012 -6.073326 2.114364 25.966911 8.639021 17.979800 3.304957 0.000000 0.000000 0.000000 3.711795 0.711883 -6.567528 2.745806 0.438572 18.657403 -13.818930 -30.668516 3.850579 0.000000 0.000000 0.000000 -3.283246 0.326527 -8.957467 12.216454 -7.574187 18.173973 -8.203792 5.883520 -14.967619 0.815795 3.795793 -58.527990 0.000000 0.000000 0.000000 13.598079 21.770936 -0.620021 -22.974051 -38.099196 4.740024 71.638068 -11.877110 -12.473820 0.000000 0.000000 0.000000 -14.827571 -10.563589 -1.343585 -9.392728 85.243878 -9.166071 -107.127371 19.460518 -20.808375 0.000000 0.000000 0.000000 
0.002506 0.906995 -0.006824 0.637949 -11.439328 2.440616 -2.862965 -1.271507 -11.879275 -9.174995 3.817085 26.962222 10.276980 20.515305 7.616966 0.000000 0.000000 0.000000 2.015062 0.521036 -5.354510 3.951959 0.223091 17.400798 -13.575327 -29.974055 2.138851 0.000000 0.000000 0.000000 -3.495954 0.399856 -9.860463 11.630037 -7.378054 27.080094 -9.213017 5.755965 -17.610355 -0.587335 3.920992 -58.815831 0.000000 0.000000 0.000000 16.014124 22.820888 0.359010 -29.494394 -38.227992 6.379501 72.075608 -10.066672 -11.900477 0.000000 0.000000 0.000000 -10.577080 -10.203473 -1.946530 51.034062 84.537242 45.828915 -112.631669 27.706257 -34.661494 0.000000 0.000000 0.000000 
0.007209 0.903059 -0.009595 0.293522 -11.724058 2.840626 -2.207935 -1.524628 -15.959378 -10.442010 4.896559 30.635408 12.850005 25.069215 6.042037 0.000000 0.000000 0.000000 2.315658 0.672506 -6.570581 2.833921 0.659517 19.925225 -11.465899 -26.006911 -1.744663 0.000000 0.000000 0.000000 -4.194676 0.325745 -8.632547 12.747253 -8.017890 25.501033 -8.819178 6.092983 -16.190094 0.372766 3.851325 -59.440356 0.000000 0.000000 0.000000 12.616097 22.320793 -1.108232 -39.665278 -37.917346 8.791390 86.021922 -18.441680 -22.381812 0.000000 0.000000 0.000000 -9.121409 -11.908372 -2.619088 91.856685 73.043525 71.437486 -128.799907 39.166574 -66.173041 0.000000 0.000000 0.000000 
0.009897 0.899973 -0.009226 0.487139 -13.838856 2.520388 -1.047007 -1.467160 -18.798751 -10.088838 5.571334 33.559298 13.471187 26.990194 1.920268 0.000000 0.000000 0.000000 0.998815 0.681463 -6.832301 3.428501 0.642218 20.181906 -10.841422 -24.297692 -2.660007 0.000000 0.000000 0.000000 -3.582642 0.362383 -8.088055 11.810738 -6.792520 25.039402 -8.508439 7.299632 -14.508458 0.325074 3.783505 -56.592497 0.000000 0.000000 0.000000 12.110581 22.291016 -1.401590 -45.037154 -37.840944 9.854945 90.895108 -23.773211 -29.222459 0.000000 0.000000 0.000000 -6.054709 -10.756699 -2.883324 88.070226 62.588704 56.233573 -145.828109 48.315486 -102.635338 0.000000 0.000000 0.000000 
0.016858 0.891912 -0.004858 0.741057 -12.371366 2.167050 -0.538003 -1.522860 -20.766569 -10.651820 5.862446 35.369947 16.492930 33.719720 -1.561792 0.000000 0.000000 0.000000 -0.014522 0.649094 -6.588716 3.282740 0.642476 20.805633 -10.593951 -23.825929 -4.900391 0.000000 0.000000 0.000000 -3.693820 0.281635 -6.868603 13.324118 -8.058728 23.230034 -9.717977 7.605973 -12.098276 -1.195121 3.974196 -54.917690 0.000000 0.000000 0.000000 8.584289 21.287654 -2.641850 -52.974649 -34.847120 10.160141 102.070482 -30.646839 -42.599161 0.000000 0.000000 0.000000 -3.589585 -11.420513 -3.555247 91.091426 53.783915 49.203807 -164.934175 50.579979 -138.744125 0.000000 0.000000 0.000000 
0.020414 0.886963 -0.000487 1.119617 -14.165215 2.510038 0.740407 -1.237447 -22.160601 -9.561169 5.722470 35.799136 17.411545 35.174312 -0.675210 0.000000 0.000000 0.000000 -1.016189 0.667697 -6.828883 2.957752 0.763492 20.039786 -10.529995 -23.060916 -6.907950 0.000000 0.000000 0.000000 -2.100698 0.303330 -5.837221 12.582762 -7.016970 21.367621 -10.413362 7.439930 -11.659594 -0.438123 3.848980 -54.378888 0.000000 0.000000 0.000000 7.182672 21.598523 -3.382574 -59.645677 -32.036772 10.082093 105.344367 -37.248106 -51.862347 0.000000 0.000000 0.000000 -4.564399 -11.028575 -3.251685 95.614593 47.373614 45.198501 179.674532 52.868429 -172.341084 0.000000 0.000000 0.000000 
